<svg width="93" height="19" viewBox="0 0 93 19" fill="none" xmlns="http://www.w3.org/2000/svg">
<path d="M8.7136 14.6591L3.92667 8.30252H2.63406V14.6591H-0.000887811V0.113603H2.63406V6.09372H3.29457L8.46502 0.113603H11.7108L5.96502 6.74713L11.9593 14.6591H8.7136ZM16.5747 14.8792C15.8834 14.8792 15.2608 14.7561 14.7068 14.5099C14.1575 14.259 13.7219 13.8896 13.4 13.402C13.0827 12.9143 12.9241 12.3129 12.9241 11.598C12.9241 10.9824 13.0377 10.4735 13.265 10.071C13.4923 9.66853 13.8024 9.34656 14.1954 9.10508C14.5884 8.8636 15.0311 8.68131 15.5235 8.55821C16.0207 8.43036 16.5344 8.33803 17.0647 8.28122C17.7039 8.21493 18.2224 8.15574 18.6201 8.10366C19.0179 8.04684 19.3067 7.96161 19.4866 7.84798C19.6713 7.72961 19.7636 7.54731 19.7636 7.3011V7.25849C19.7636 6.72345 19.605 6.30915 19.2877 6.01559C18.9705 5.72203 18.5136 5.57525 17.917 5.57525C17.2873 5.57525 16.7877 5.71256 16.4184 5.98718C16.0538 6.2618 15.8076 6.58614 15.6798 6.96019L13.2792 6.61928C13.4686 5.95641 13.7811 5.40243 14.2167 4.95735C14.6523 4.50754 15.185 4.17137 15.8147 3.94883C16.4445 3.72156 17.1405 3.60792 17.9028 3.60792C18.4284 3.60792 18.9516 3.66947 19.4724 3.79258C19.9932 3.91569 20.4691 4.11928 20.9 4.40338C21.3308 4.68273 21.6765 5.06389 21.9369 5.54684C22.202 6.0298 22.3346 6.63349 22.3346 7.35792V14.6591H19.863V13.1605H19.7778C19.6216 13.4635 19.4014 13.7476 19.1173 14.0128C18.8379 14.2732 18.4852 14.4839 18.0591 14.6449C17.6377 14.8011 17.1429 14.8792 16.5747 14.8792ZM17.2423 12.99C17.7584 12.99 18.2058 12.8882 18.5846 12.6846C18.9634 12.4763 19.2546 12.2017 19.4582 11.8608C19.6665 11.5199 19.7707 11.1482 19.7707 10.7457V9.46019C19.6902 9.52648 19.5529 9.58803 19.3588 9.64485C19.1694 9.70167 18.9563 9.75139 18.7196 9.794C18.4828 9.83661 18.2484 9.87449 18.0164 9.90764C17.7844 9.94078 17.5832 9.96919 17.4127 9.99286C17.0292 10.0449 16.6859 10.1302 16.3829 10.2485C16.0799 10.3669 15.8408 10.5326 15.6656 10.7457C15.4904 10.954 15.4028 11.2239 15.4028 11.5554C15.4028 12.0288 15.5756 12.3863 15.9213 12.6278C16.2669 12.8693 16.7073 12.99 17.2423 12.99ZM24.1162 11.669H26.6659C26.6895 12.0762 26.8718 12.3911 27.2127 12.6136C27.5537 12.8361 27.9964 12.9474 28.5409 12.9474C29.0949 12.9474 29.5612 12.8267 29.94 12.5852C30.3235 12.339 30.5153 11.9673 30.5153 11.4701C30.5153 11.1766 30.4419 10.9185 30.2951 10.696C30.1484 10.4687 29.9424 10.2935 29.6772 10.1704C29.4121 10.0473 29.0996 9.98576 28.7397 9.98576H27.0707V8.16048H28.7397C29.2748 8.16048 29.6796 8.03737 29.9542 7.79116C30.2336 7.54495 30.3733 7.23481 30.3733 6.86076C30.3733 6.4583 30.2265 6.1316 29.9329 5.88065C29.6441 5.6297 29.244 5.50423 28.7326 5.50423C28.2213 5.50423 27.7951 5.62023 27.4542 5.85224C27.1181 6.08425 26.9429 6.38254 26.9287 6.74713H24.3931C24.4026 6.11266 24.592 5.56105 24.9613 5.0923C25.3354 4.62355 25.8373 4.25896 26.467 3.99855C27.1015 3.73813 27.8164 3.60792 28.6119 3.60792C29.4642 3.60792 30.2004 3.73576 30.8207 3.99144C31.441 4.24713 31.9192 4.60461 32.2554 5.06389C32.5915 5.51843 32.7596 6.05347 32.7596 6.669C32.7596 7.26086 32.575 7.75091 32.2056 8.13917C31.8363 8.52269 31.3392 8.79731 30.7142 8.96303V9.07667C31.145 9.10035 31.5333 9.22345 31.8789 9.44599C32.2246 9.66379 32.4992 9.95972 32.7028 10.3338C32.9064 10.7078 33.0082 11.1411 33.0082 11.6335C33.0082 12.3011 32.8164 12.8788 32.4329 13.3664C32.0494 13.8494 31.5215 14.2211 30.8491 14.4815C30.1815 14.7419 29.4168 14.8721 28.5551 14.8721C27.717 14.8721 26.9665 14.7467 26.3037 14.4957C25.6455 14.24 25.1223 13.8731 24.7341 13.3949C24.3458 12.9166 24.1398 12.3413 24.1162 11.669Z" fill="#1F2F4A"/>
<path d="M33.3068 2.32241V0.113603H44.9119V2.32241H40.4162V14.6591H37.8025V2.32241H33.3068ZM45.5027 18.75V3.74997H48.0311V5.55394H48.1802C48.3128 5.28879 48.4998 5.00707 48.7413 4.70877C48.9828 4.40574 49.3095 4.14769 49.7214 3.93463C50.1333 3.71682 50.6589 3.60792 51.2981 3.60792C52.1409 3.60792 52.9009 3.82336 53.5779 4.25423C54.2598 4.68036 54.7995 5.31247 55.1973 6.15053C55.5997 6.98387 55.801 8.0066 55.801 9.21872C55.801 10.4166 55.6045 11.4346 55.2115 12.2727C54.8185 13.1108 54.2834 13.75 53.6064 14.1903C52.9293 14.6306 52.1622 14.8508 51.3052 14.8508C50.6802 14.8508 50.1618 14.7467 49.7498 14.5383C49.3379 14.33 49.0065 14.079 48.7555 13.7855C48.5093 13.4872 48.3175 13.2055 48.1802 12.9403H48.0737V18.75H45.5027ZM48.024 9.20451C48.024 9.91 48.1234 10.5279 48.3223 11.0582C48.5259 11.5885 48.8171 12.0028 49.1958 12.3011C49.5794 12.5947 50.0434 12.7414 50.5879 12.7414C51.1561 12.7414 51.6319 12.5899 52.0154 12.2869C52.399 11.9791 52.6878 11.5601 52.8819 11.0298C53.0808 10.4948 53.1802 9.88633 53.1802 9.20451C53.1802 8.52743 53.0832 7.9261 52.889 7.40053C52.6949 6.87497 52.4061 6.46303 52.0225 6.16474C51.639 5.86644 51.1608 5.7173 50.5879 5.7173C50.0386 5.7173 49.5723 5.86171 49.1887 6.15053C48.8052 6.43936 48.514 6.84419 48.3152 7.36502C48.121 7.88586 48.024 8.49902 48.024 9.20451ZM62.4322 14.8721C61.3385 14.8721 60.3939 14.6449 59.5984 14.1903C58.8077 13.731 58.1993 13.0824 57.7731 12.2443C57.347 11.4015 57.1339 10.4095 57.1339 9.26843C57.1339 8.14627 57.347 7.16142 57.7731 6.31389C58.204 5.46161 58.8053 4.79874 59.5771 4.32525C60.3489 3.84703 61.2556 3.60792 62.2973 3.60792C62.9696 3.60792 63.6041 3.71682 64.2007 3.93463C64.802 4.14769 65.3323 4.47913 65.7916 4.92894C66.2556 5.37875 66.6202 5.95167 66.8853 6.64769C67.1505 7.33898 67.2831 8.16285 67.2831 9.11928V9.90764H58.3413V8.17468H64.8186C64.8138 7.68226 64.7073 7.24428 64.499 6.86076C64.2906 6.4725 63.9994 6.16711 63.6254 5.94457C63.2561 5.72203 62.8252 5.61076 62.3328 5.61076C61.8072 5.61076 61.3456 5.7386 60.9478 5.99428C60.5501 6.24523 60.24 6.57667 60.0174 6.9886C59.7996 7.3958 59.6884 7.84324 59.6836 8.33093V9.84372C59.6836 10.4782 59.7996 11.0227 60.0316 11.4772C60.2636 11.927 60.588 12.2727 61.0047 12.5142C61.4213 12.7509 61.909 12.8693 62.4677 12.8693C62.8418 12.8693 63.1803 12.8172 63.4833 12.713C63.7864 12.6041 64.0492 12.4455 64.2717 12.2372C64.4942 12.0288 64.6623 11.7708 64.776 11.463L67.1765 11.7329C67.025 12.3674 66.7362 12.9214 66.31 13.3949C65.8886 13.8636 65.3489 14.2282 64.6907 14.4886C64.0326 14.7443 63.2797 14.8721 62.4322 14.8721ZM71.7368 11.1789L76.1047 3.74997H78.7468V14.6591H76.261V7.22298L71.9073 14.6591H69.2581V3.74997H71.7368V11.1789ZM75.4016 -3.3617e-05H77.3263C77.3263 0.828565 77.0257 1.50091 76.4243 2.01701C75.8277 2.52838 75.0181 2.78406 73.9953 2.78406C72.9821 2.78406 72.1748 2.52838 71.5735 2.01701C70.9769 1.50091 70.681 0.828565 70.6857 -3.3617e-05H72.5962C72.5962 0.340876 72.7004 0.646273 72.9087 0.916159C73.1218 1.18131 73.484 1.31389 73.9953 1.31389C74.4972 1.31389 74.8547 1.18131 75.0678 0.916159C75.2856 0.651008 75.3969 0.345611 75.4016 -3.3617e-05ZM80.2211 17.8267V12.5426H81.0876C81.3196 12.3627 81.5137 12.1188 81.67 11.811C81.8262 11.4985 81.9541 11.1316 82.0535 10.7102C82.1577 10.2841 82.2429 9.80821 82.3092 9.28264C82.3755 8.75233 82.4347 8.18178 82.4868 7.57099L82.7993 3.74997H90.6828V12.5426H92.3731V17.8267H89.8873V14.6591H82.7495V17.8267H80.2211ZM83.7296 12.5426H88.2254V5.82383H85.0294L84.8589 7.57099C84.7642 8.72629 84.6387 9.71588 84.4825 10.5397C84.3262 11.3636 84.0753 12.0312 83.7296 12.5426Z" fill="#64748B"/>
</svg>
