<svg width="92" height="19" viewBox="0 0 92 19" fill="none" xmlns="http://www.w3.org/2000/svg">
<path d="M8.7136 14.6592L3.92667 8.30265H2.63406V14.6592H-0.000887811V0.113725H2.63406V6.09384H3.29457L8.46502 0.113725H11.7108L5.96502 6.74725L11.9593 14.6592H8.7136ZM16.5747 14.8794C15.8834 14.8794 15.2608 14.7562 14.7068 14.51C14.1575 14.2591 13.7219 13.8898 13.4 13.4021C13.0827 12.9144 12.9241 12.3131 12.9241 11.5981C12.9241 10.9826 13.0377 10.4736 13.265 10.0711C13.4923 9.66865 13.8024 9.34668 14.1954 9.1052C14.5884 8.86373 15.0311 8.68143 15.5235 8.55833C16.0207 8.43049 16.5344 8.33816 17.0647 8.28134C17.7039 8.21505 18.2224 8.15586 18.6201 8.10378C19.0179 8.04696 19.3067 7.96174 19.4866 7.8481C19.6713 7.72973 19.7636 7.54744 19.7636 7.30122V7.25861C19.7636 6.72357 19.605 6.30927 19.2877 6.01571C18.9705 5.72215 18.5136 5.57537 17.917 5.57537C17.2873 5.57537 16.7877 5.71268 16.4184 5.9873C16.0538 6.26193 15.8076 6.58626 15.6798 6.96032L13.2792 6.61941C13.4686 5.95653 13.7811 5.40255 14.2167 4.95747C14.6523 4.50766 15.185 4.17149 15.8147 3.94895C16.4445 3.72168 17.1405 3.60804 17.9028 3.60804C18.4284 3.60804 18.9516 3.6696 19.4724 3.7927C19.9932 3.91581 20.4691 4.11941 20.9 4.4035C21.3308 4.68285 21.6765 5.06401 21.9369 5.54696C22.202 6.02992 22.3346 6.63361 22.3346 7.35804V14.6592H19.863V13.1606H19.7778C19.6216 13.4636 19.4014 13.7477 19.1173 14.0129C18.8379 14.2733 18.4852 14.484 18.0591 14.645C17.6377 14.8012 17.1429 14.8794 16.5747 14.8794ZM17.2423 12.9901C17.7584 12.9901 18.2058 12.8883 18.5846 12.6847C18.9634 12.4764 19.2546 12.2018 19.4582 11.8609C19.6665 11.52 19.7707 11.1483 19.7707 10.7458V9.46032C19.6902 9.5266 19.5529 9.58816 19.3588 9.64497C19.1694 9.70179 18.9563 9.75151 18.7196 9.79412C18.4828 9.83674 18.2484 9.87462 18.0164 9.90776C17.7844 9.9409 17.5832 9.96931 17.4127 9.99299C17.0292 10.0451 16.6859 10.1303 16.3829 10.2487C16.0799 10.367 15.8408 10.5328 15.6656 10.7458C15.4904 10.9542 15.4028 11.224 15.4028 11.5555C15.4028 12.029 15.5756 12.3865 15.9213 12.6279C16.2669 12.8694 16.7073 12.9901 17.2423 12.9901ZM24.1162 11.6691H26.6659C26.6895 12.0763 26.8718 12.3912 27.2127 12.6137C27.5537 12.8363 27.9964 12.9475 28.5409 12.9475C29.0949 12.9475 29.5612 12.8268 29.94 12.5853C30.3235 12.3391 30.5153 11.9674 30.5153 11.4703C30.5153 11.1767 30.4419 10.9186 30.2951 10.6961C30.1484 10.4688 29.9424 10.2936 29.6772 10.1705C29.4121 10.0474 29.0996 9.98588 28.7397 9.98588H27.0707V8.1606H28.7397C29.2748 8.1606 29.6796 8.03749 29.9542 7.79128C30.2336 7.54507 30.3733 7.23494 30.3733 6.86088C30.3733 6.45842 30.2265 6.13172 29.9329 5.88077C29.6441 5.62982 29.244 5.50435 28.7326 5.50435C28.2213 5.50435 27.7951 5.62035 27.4542 5.85236C27.1181 6.08437 26.9429 6.38266 26.9287 6.74725H24.3931C24.4026 6.11278 24.592 5.56117 24.9613 5.09242C25.3354 4.62367 25.8373 4.25909 26.467 3.99867C27.1015 3.73825 27.8164 3.60804 28.6119 3.60804C29.4642 3.60804 30.2004 3.73588 30.8207 3.99157C31.441 4.24725 31.9192 4.60473 32.2554 5.06401C32.5915 5.51855 32.7596 6.05359 32.7596 6.66912C32.7596 7.26098 32.575 7.75104 32.2056 8.13929C31.8363 8.52282 31.3392 8.79744 30.7142 8.96316V9.07679C31.145 9.10047 31.5333 9.22357 31.8789 9.44611C32.2246 9.66391 32.4992 9.95984 32.7028 10.3339C32.9064 10.7079 33.0082 11.1412 33.0082 11.6336C33.0082 12.3012 32.8164 12.8789 32.4329 13.3666C32.0494 13.8495 31.5215 14.2212 30.8491 14.4816C30.1815 14.742 29.4168 14.8722 28.5551 14.8722C27.717 14.8722 26.9665 14.7468 26.3037 14.4958C25.6455 14.2401 25.1223 13.8732 24.7341 13.395C24.3458 12.9168 24.1398 12.3415 24.1162 11.6691Z" fill="white"/>
<path d="M33.3068 2.32253V0.113725H44.9119V2.32253H40.4162V14.6592H37.8025V2.32253H33.3068ZM44.7027 18.7501V3.75009H47.2311V5.55407H47.3802C47.5128 5.28891 47.6998 5.00719 47.9413 4.7089C48.1828 4.40586 48.5095 4.14782 48.9214 3.93475C49.3333 3.71694 49.8589 3.60804 50.4981 3.60804C51.3409 3.60804 52.1009 3.82348 52.7779 4.25435C53.4598 4.68049 53.9995 5.31259 54.3973 6.15066C54.7997 6.98399 55.001 8.00672 55.001 9.21884C55.001 10.4168 54.8045 11.4347 54.4115 12.2728C54.0185 13.1109 53.4834 13.7501 52.8064 14.1904C52.1293 14.6308 51.3622 14.8509 50.5052 14.8509C49.8802 14.8509 49.3618 14.7468 48.9498 14.5384C48.5379 14.3301 48.2065 14.0792 47.9555 13.7856C47.7093 13.4873 47.5175 13.2056 47.3802 12.9404H47.2737V18.7501H44.7027ZM47.224 9.20463C47.224 9.91013 47.3234 10.528 47.5223 11.0583C47.7259 11.5886 48.0171 12.0029 48.3958 12.3012C48.7794 12.5948 49.2434 12.7416 49.7879 12.7416C50.3561 12.7416 50.8319 12.5901 51.2154 12.287C51.599 11.9793 51.8878 11.5602 52.0819 11.0299C52.2808 10.4949 52.3802 9.88645 52.3802 9.20463C52.3802 8.52755 52.2832 7.92622 52.089 7.40066C51.8949 6.87509 51.6061 6.46316 51.2226 6.16486C50.839 5.86657 50.3608 5.71742 49.7879 5.71742C49.2386 5.71742 48.7723 5.86183 48.3887 6.15066C48.0052 6.43948 47.714 6.84431 47.5152 7.36515C47.321 7.88598 47.224 8.49914 47.224 9.20463ZM61.8322 14.8722C60.7385 14.8722 59.7939 14.645 58.9984 14.1904C58.2077 13.7311 57.5993 13.0825 57.1731 12.2444C56.747 11.4016 56.5339 10.4097 56.5339 9.26855C56.5339 8.1464 56.747 7.16155 57.1731 6.31401C57.604 5.46174 58.2053 4.79886 58.9771 4.32537C59.7489 3.84715 60.6556 3.60804 61.6973 3.60804C62.3696 3.60804 63.0041 3.71694 63.6007 3.93475C64.202 4.14782 64.7323 4.47926 65.1916 4.92907C65.6556 5.37888 66.0202 5.95179 66.2853 6.64782C66.5505 7.3391 66.6831 8.16297 66.6831 9.11941V9.90776H57.7413V8.1748H64.2186C64.2138 7.68238 64.1073 7.24441 63.899 6.86088C63.6906 6.47263 63.3994 6.16723 63.0254 5.94469C62.6561 5.72215 62.2252 5.61088 61.7328 5.61088C61.2072 5.61088 60.7456 5.73872 60.3478 5.99441C59.9501 6.24535 59.64 6.57679 59.4174 6.98872C59.1996 7.39592 59.0884 7.84337 59.0836 8.33105V9.84384C59.0836 10.4783 59.1996 11.0228 59.4316 11.4774C59.6636 11.9272 59.988 12.2728 60.4047 12.5143C60.8213 12.751 61.309 12.8694 61.8677 12.8694C62.2418 12.8694 62.5803 12.8173 62.8833 12.7132C63.1864 12.6043 63.4492 12.4456 63.6717 12.2373C63.8942 12.029 64.0623 11.7709 64.176 11.4632L66.5765 11.733C66.425 12.3675 66.1362 12.9215 65.7101 13.395C65.2886 13.8637 64.7489 14.2283 64.0907 14.4887C63.4326 14.7444 62.6797 14.8722 61.8322 14.8722ZM71.1368 11.1791L75.5047 3.75009H78.1468V14.6592H75.661V7.2231L71.3073 14.6592H68.6581V3.75009H71.1368V11.1791ZM74.8016 8.84533e-05H76.7263C76.7263 0.828687 76.4257 1.50104 75.8243 2.01713C75.2277 2.5285 74.4181 2.78418 73.3954 2.78418C72.3821 2.78418 71.5748 2.5285 70.9735 2.01713C70.3769 1.50104 70.081 0.828687 70.0857 8.84533e-05H71.9962C71.9962 0.340998 72.1004 0.646395 72.3087 0.916281C72.5218 1.18143 72.884 1.31401 73.3954 1.31401C73.8972 1.31401 74.2547 1.18143 74.4678 0.916281C74.6856 0.65113 74.7969 0.345733 74.8016 8.84533e-05ZM79.6211 17.8268V12.5427H80.4876C80.7196 12.3628 80.9137 12.1189 81.07 11.8112C81.2262 11.4987 81.3541 11.1317 81.4535 10.7103C81.5577 10.2842 81.6429 9.80833 81.7092 9.28276C81.7755 8.75246 81.8347 8.18191 81.8868 7.57111L82.1993 3.75009H90.0828V12.5427H91.7731V17.8268H89.2873V14.6592H82.1495V17.8268H79.6211ZM83.1297 12.5427H87.6254V5.82395H84.4294L84.2589 7.57111C84.1642 8.72641 84.0387 9.716 83.8825 10.5399C83.7262 11.3637 83.4753 12.0313 83.1297 12.5427Z" fill="#8FA3BF"/>
</svg>
