<svg width="20" height="20" viewBox="0 0 20 20" fill="none" xmlns="http://www.w3.org/2000/svg">
<g clip-path="url(#clip0_349_2)">
<path d="M20 10C20 4.47715 15.5228 0 10 0C4.47715 0 0 4.47715 0 10C0 15.5228 4.47715 20 10 20C15.5228 20 20 15.5228 20 10Z" fill="url(#paint0_linear_349_2)"/>
<path d="M20 10C20 4.47715 15.5228 0 10 0C4.47715 0 0 4.47715 0 10C0 15.5228 4.47715 20 10 20C15.5228 20 20 15.5228 20 10Z" fill="#9CA3AF"/>
<path fill-rule="evenodd" clip-rule="evenodd" d="M10.1225 15.6229C8.99637 15.6229 8.47304 15.4578 7.56337 14.7974C6.98797 15.5404 5.16592 16.121 5.08644 15.1276C5.08644 14.3819 4.92204 13.7517 4.73572 13.0637C4.51379 12.2161 4.26172 11.2722 4.26172 9.90456C4.26172 6.63809 6.93044 4.18066 10.0924 4.18066C13.257 4.18066 15.7367 6.75916 15.7367 9.93484C15.7473 13.0614 13.2355 15.6063 10.1225 15.6229ZM10.1691 7.00409C8.62922 6.92429 7.42912 7.99476 7.16334 9.67341C6.94414 11.0631 7.33322 12.7555 7.66474 12.8436C7.82367 12.8821 8.22369 12.5574 8.47304 12.3069C8.88532 12.593 9.36544 12.7648 9.86494 12.805C11.4605 12.8821 12.8238 11.6621 12.931 10.0614C12.9933 8.45731 11.7648 7.09864 10.1691 7.00684V7.00409Z" fill="#1C2B4A"/>
</g>
<defs>
<linearGradient id="paint0_linear_349_2" x1="2.35694" y1="15.2107" x2="20" y2="10" gradientUnits="userSpaceOnUse">
<stop stop-color="#44CCFF"/>
<stop offset="0.662" stop-color="#5533EE"/>
<stop offset="1" stop-color="#9933DD"/>
</linearGradient>
<clipPath id="clip0_349_2">
<rect width="20" height="20" fill="white"/>
</clipPath>
</defs>
</svg>
