<svg width="15" height="15" viewBox="0 0 15 15" fill="none" xmlns="http://www.w3.org/2000/svg">
<path d="M13.5352 0.738281C13.8359 0.820312 14.0547 1.06641 14.0547 1.36719C14.0547 8.39453 8.36719 14.0547 1.36719 14.0547C1.03906 14.0547 0.792969 13.8633 0.710938 13.5625L0.0546875 10.7188C0 10.418 0.136719 10.0898 0.4375 9.95312L3.5 8.64062C3.77344 8.53125 4.07422 8.61328 4.26562 8.83203L5.63281 10.5C7.76562 9.48828 9.48828 7.73828 10.4727 5.66016L8.80469 4.29297C8.58594 4.10156 8.50391 3.80078 8.61328 3.52734L9.92578 0.464844C10.0625 0.164062 10.3906 0 10.6914 0.0820312L13.5352 0.738281Z" fill="#9CA3AF"/>
</svg>
