<svg width="23" height="28" viewBox="0 0 23 28" fill="none" xmlns="http://www.w3.org/2000/svg">
<path d="M21.2891 9.10938C20.9766 10.4375 18.1641 14.4219 18.1641 14.4219C17.9297 14.8125 17.8125 15.0078 18.1641 15.4375C18.3203 15.6328 21.25 18.4453 21.6797 19.7734C21.875 20.4375 21.5625 20.75 20.8984 20.75H18.5938C17.7344 20.75 17.4609 20.0859 15.8984 18.5234C14.5312 17.1953 13.9453 17 13.5938 17C12.8906 17 13.0078 17.2734 13.0078 19.8906C13.0078 20.4375 12.8125 20.75 11.3672 20.75C8.94531 20.75 6.25 19.3047 4.33594 16.5703C1.48438 12.5469 0.703125 9.53906 0.703125 8.91406C0.703125 8.5625 0.859375 8.25 1.48438 8.25H3.78906C4.375 8.25 4.60938 8.52344 4.84375 9.14844C5.97656 12.4297 7.85156 15.3203 8.63281 15.3203C8.94531 15.3203 9.0625 15.1641 9.0625 14.4219V11.0234C8.98438 9.46094 8.16406 9.34375 8.16406 8.79688C8.16406 8.52344 8.35938 8.25 8.75 8.25H12.3438C12.8516 8.25 13.0078 8.52344 13.0078 9.10938V13.6797C13.0078 14.1484 13.2422 14.3438 13.3594 14.3438C13.6719 14.3438 13.9062 14.1484 14.4531 13.6406C16.0938 11.7656 17.2656 8.91406 17.2656 8.91406C17.4219 8.5625 17.6953 8.25 18.2812 8.25H20.5859C21.2891 8.25 21.4062 8.64062 21.2891 9.10938Z" fill="#9CA3AF"/>
</svg>
