<svg width="32" height="32" viewBox="0 0 32 32" fill="none" xmlns="http://www.w3.org/2000/svg">
<rect width="32" height="32" rx="16" fill="#F3F4F6"/>
<path d="M15.9745 20.6392C15.2321 20.6392 14.5709 20.5116 13.9909 20.2564C13.4142 19.9979 12.9584 19.6432 12.6237 19.1925C12.2922 18.7384 12.1215 18.2147 12.1116 17.6214H14.2792C14.2925 17.87 14.3737 18.0888 14.5228 18.2777C14.6753 18.4633 14.8775 18.6075 15.1294 18.7102C15.3812 18.813 15.6646 18.8643 15.9795 18.8643C16.3076 18.8643 16.5976 18.8063 16.8495 18.6903C17.1014 18.5743 17.2986 18.4136 17.4411 18.2081C17.5837 18.0026 17.6549 17.7656 17.6549 17.4972C17.6549 17.2254 17.5787 16.9851 17.4262 16.7763C17.2771 16.5642 17.0616 16.3984 16.7799 16.2791C16.5015 16.1598 16.1701 16.1001 15.7856 16.1001H14.836V14.5192H15.7856C16.1104 14.5192 16.3971 14.4628 16.6457 14.3501C16.8976 14.2375 17.0931 14.0817 17.2323 13.8828C17.3715 13.6806 17.4411 13.4453 17.4411 13.1768C17.4411 12.9216 17.3798 12.6979 17.2572 12.5057C17.1379 12.3101 16.9688 12.1577 16.7501 12.0483C16.5347 11.9389 16.2828 11.8842 15.9944 11.8842C15.7027 11.8842 15.4359 11.9373 15.194 12.0433C14.952 12.1461 14.7581 12.2936 14.6123 12.4858C14.4665 12.678 14.3886 12.9034 14.3786 13.1619H12.3154C12.3254 12.5753 12.4927 12.0582 12.8176 11.6108C13.1424 11.1634 13.5799 10.8137 14.1301 10.5618C14.6836 10.3066 15.3083 10.179 16.0044 10.179C16.707 10.179 17.3218 10.3066 17.8488 10.5618C18.3758 10.817 18.7851 11.1617 19.0768 11.5959C19.3718 12.0268 19.5176 12.5107 19.5143 13.0476C19.5176 13.6177 19.3403 14.0933 18.9823 14.4744C18.6277 14.8556 18.1653 15.0975 17.5953 15.2003V15.2798C18.3443 15.3759 18.9144 15.6361 19.3055 16.0604C19.6999 16.4813 19.8954 17.0083 19.8921 17.6413C19.8954 18.2214 19.7281 18.7367 19.39 19.1875C19.0553 19.6383 18.5929 19.9929 18.0029 20.2514C17.413 20.5099 16.7368 20.6392 15.9745 20.6392Z" fill="#1E2B4D"/>
</svg>
