<svg width="32" height="32" viewBox="0 0 32 32" fill="none" xmlns="http://www.w3.org/2000/svg">
<rect width="32" height="32" rx="16" fill="#F3F4F6"/>
<path d="M12.4161 20.5V18.9489L16.0404 15.593C16.3486 15.2947 16.6072 15.0263 16.816 14.7876C17.0281 14.549 17.1888 14.3153 17.2982 14.0866C17.4076 13.8546 17.4623 13.6044 17.4623 13.3359C17.4623 13.0376 17.3943 12.7808 17.2584 12.5653C17.1225 12.3466 16.9369 12.1792 16.7016 12.0632C16.4663 11.9439 16.1995 11.8842 15.9012 11.8842C15.5896 11.8842 15.3179 11.9472 15.0858 12.0732C14.8538 12.1991 14.6749 12.3797 14.5489 12.6151C14.423 12.8504 14.36 13.1304 14.36 13.4553H12.3167C12.3167 12.7891 12.4675 12.2107 12.7691 11.7202C13.0707 11.2296 13.4933 10.8501 14.0368 10.5817C14.5804 10.3132 15.2068 10.179 15.9161 10.179C16.6453 10.179 17.28 10.3082 17.8202 10.5668C18.3638 10.822 18.7864 11.1766 19.088 11.6307C19.3896 12.0848 19.5404 12.6051 19.5404 13.1918C19.5404 13.5762 19.4642 13.9557 19.3117 14.3303C19.1626 14.7048 18.8957 15.1207 18.5113 15.5781C18.1268 16.0322 17.5849 16.5774 16.8856 17.2138L15.3991 18.6705V18.7401H19.6746V20.5H12.4161Z" fill="#1E2B4D"/>
</svg>
