<svg width="44" height="44" viewBox="0 0 44 44" fill="none" xmlns="http://www.w3.org/2000/svg">
<g filter="url(#filter0_d_374_231)">
<rect x="2" y="1" width="40" height="40" rx="8" fill="white" shape-rendering="crispEdges"/>
<path d="M18.875 26.6249C18.875 26.9564 18.7433 27.2744 18.5089 27.5088C18.2745 27.7432 17.9565 27.8749 17.625 27.8749C17.2935 27.8749 16.9756 27.7432 16.7411 27.5088C16.5067 27.2744 16.375 26.9564 16.375 26.6249M18.875 26.6249C18.875 26.2934 18.7433 25.9754 18.5089 25.741C18.2745 25.5066 17.9565 25.3749 17.625 25.3749C17.2935 25.3749 16.9756 25.5066 16.7411 25.741C16.5067 25.9754 16.375 26.2934 16.375 26.6249M18.875 26.6249H23.875M16.375 26.6249H14.8125C14.5639 26.6249 14.3254 26.5261 14.1496 26.3503C13.9738 26.1745 13.875 25.9361 13.875 25.6874V22.8749M23.875 26.6249H25.75M23.875 26.6249V22.8749M13.875 22.8749V16.5124C13.8737 16.2842 13.9571 16.0636 14.109 15.8934C14.2609 15.7231 14.4706 15.6153 14.6975 15.5907C17.4751 15.3024 20.275 15.3024 23.0525 15.5907C23.5233 15.6391 23.875 16.0391 23.875 16.5124V17.3107M13.875 22.8749H23.875M28.25 26.6249C28.25 26.9564 28.1183 27.2744 27.8839 27.5088C27.6495 27.7432 27.3315 27.8749 27 27.8749C26.6685 27.8749 26.3506 27.7432 26.1161 27.5088C25.8817 27.2744 25.75 26.9564 25.75 26.6249M28.25 26.6249C28.25 26.2934 28.1183 25.9754 27.8839 25.741C27.6495 25.5066 27.3315 25.3749 27 25.3749C26.6685 25.3749 26.3506 25.5066 26.1161 25.741C25.8817 25.9754 25.75 26.2934 25.75 26.6249M28.25 26.6249H29.1875C29.705 26.6249 30.1283 26.2049 30.0958 25.6882C29.9284 22.9363 29.0016 20.2845 27.4183 18.0274C27.2675 17.816 27.0707 17.6416 26.8426 17.5174C26.6145 17.3933 26.3611 17.3226 26.1017 17.3107H23.875M23.875 17.3107V22.8749" stroke="#25438B" stroke-width="1.25" stroke-linecap="round" stroke-linejoin="round"/>
</g>
<defs>
<filter id="filter0_d_374_231" x="0" y="0" width="44" height="44" filterUnits="userSpaceOnUse" color-interpolation-filters="sRGB">
<feFlood flood-opacity="0" result="BackgroundImageFix"/>
<feColorMatrix in="SourceAlpha" type="matrix" values="0 0 0 0 0 0 0 0 0 0 0 0 0 0 0 0 0 0 127 0" result="hardAlpha"/>
<feOffset dy="1"/>
<feGaussianBlur stdDeviation="1"/>
<feComposite in2="hardAlpha" operator="out"/>
<feColorMatrix type="matrix" values="0 0 0 0 0 0 0 0 0 0 0 0 0 0 0 0 0 0 0.05 0"/>
<feBlend mode="normal" in2="BackgroundImageFix" result="effect1_dropShadow_374_231"/>
<feBlend mode="normal" in="SourceGraphic" in2="effect1_dropShadow_374_231" result="shape"/>
</filter>
</defs>
</svg>
