<svg width="44" height="44" viewBox="0 0 44 44" fill="none" xmlns="http://www.w3.org/2000/svg">
<g filter="url(#filter0_d_374_242)">
<rect x="2" y="1" width="40" height="40" rx="8" fill="white" shape-rendering="crispEdges"/>
<path d="M24.5008 26.94C25.2116 27.1464 25.9482 27.2508 26.6883 27.25C27.8787 27.2517 29.0535 26.9803 30.1225 26.4567C30.1541 25.7098 29.9413 24.9729 29.5165 24.3578C29.0916 23.7427 28.4778 23.2828 27.7681 23.0479C27.0584 22.813 26.2914 22.8159 25.5835 23.0562C24.8755 23.2964 24.2652 23.7609 23.845 24.3792M24.5008 26.94V26.9375C24.5008 26.01 24.2625 25.1375 23.845 24.3792M24.5008 26.94V27.0283C22.8971 27.9942 21.0597 28.5032 19.1875 28.5C17.245 28.5 15.4275 27.9625 13.8758 27.0283L13.875 26.9375C13.8744 25.7579 14.2663 24.6116 14.9892 23.6794C15.712 22.7472 16.7245 22.082 17.8671 21.7888C19.0097 21.4956 20.2174 21.5911 21.2997 22.0601C22.3821 22.5291 23.2776 23.345 23.845 24.3792M22.0008 16.3125C22.0008 17.0584 21.7045 17.7738 21.1771 18.3012C20.6496 18.8287 19.9343 19.125 19.1883 19.125C18.4424 19.125 17.727 18.8287 17.1996 18.3012C16.6721 17.7738 16.3758 17.0584 16.3758 16.3125C16.3758 15.5666 16.6721 14.8512 17.1996 14.3238C17.727 13.7963 18.4424 13.5 19.1883 13.5C19.9343 13.5 20.6496 13.7963 21.1771 14.3238C21.7045 14.8512 22.0008 15.5666 22.0008 16.3125ZM28.8758 18.1875C28.8758 18.7677 28.6454 19.3241 28.2351 19.7343C27.8249 20.1445 27.2685 20.375 26.6883 20.375C26.1082 20.375 25.5518 20.1445 25.1415 19.7343C24.7313 19.3241 24.5008 18.7677 24.5008 18.1875C24.5008 17.6073 24.7313 17.0509 25.1415 16.6407C25.5518 16.2305 26.1082 16 26.6883 16C27.2685 16 27.8249 16.2305 28.2351 16.6407C28.6454 17.0509 28.8758 17.6073 28.8758 18.1875Z" stroke="#25438B" stroke-width="1.25" stroke-linecap="round" stroke-linejoin="round"/>
</g>
<defs>
<filter id="filter0_d_374_242" x="0" y="0" width="44" height="44" filterUnits="userSpaceOnUse" color-interpolation-filters="sRGB">
<feFlood flood-opacity="0" result="BackgroundImageFix"/>
<feColorMatrix in="SourceAlpha" type="matrix" values="0 0 0 0 0 0 0 0 0 0 0 0 0 0 0 0 0 0 127 0" result="hardAlpha"/>
<feOffset dy="1"/>
<feGaussianBlur stdDeviation="1"/>
<feComposite in2="hardAlpha" operator="out"/>
<feColorMatrix type="matrix" values="0 0 0 0 0 0 0 0 0 0 0 0 0 0 0 0 0 0 0.05 0"/>
<feBlend mode="normal" in2="BackgroundImageFix" result="effect1_dropShadow_374_242"/>
<feBlend mode="normal" in="SourceGraphic" in2="effect1_dropShadow_374_242" result="shape"/>
</filter>
</defs>
</svg>
