<svg width="44" height="44" viewBox="0 0 44 44" fill="none" xmlns="http://www.w3.org/2000/svg">
<g filter="url(#filter0_d_374_165)">
<rect x="2" y="1" width="40" height="40" rx="8" fill="white" shape-rendering="crispEdges"/>
<path d="M28.25 22.875V20.6875C28.25 19.9416 27.9537 19.2262 27.4262 18.6988C26.8988 18.1713 26.1834 17.875 25.4375 17.875H24.1875C23.9389 17.875 23.7004 17.7762 23.5246 17.6004C23.3488 17.4246 23.25 17.1861 23.25 16.9375V15.6875C23.25 14.9416 22.9537 14.2262 22.4262 13.6988C21.8988 13.1713 21.1834 12.875 20.4375 12.875H18.875M18.875 23.5H25.125M18.875 26H22M20.75 12.875H16.6875C16.17 12.875 15.75 13.295 15.75 13.8125V28.1875C15.75 28.705 16.17 29.125 16.6875 29.125H27.3125C27.83 29.125 28.25 28.705 28.25 28.1875V20.375C28.25 18.3859 27.4598 16.4782 26.0533 15.0717C24.6468 13.6652 22.7391 12.875 20.75 12.875Z" stroke="#25438B" stroke-width="1.25" stroke-linecap="round" stroke-linejoin="round"/>
</g>
<defs>
<filter id="filter0_d_374_165" x="0" y="0" width="44" height="44" filterUnits="userSpaceOnUse" color-interpolation-filters="sRGB">
<feFlood flood-opacity="0" result="BackgroundImageFix"/>
<feColorMatrix in="SourceAlpha" type="matrix" values="0 0 0 0 0 0 0 0 0 0 0 0 0 0 0 0 0 0 127 0" result="hardAlpha"/>
<feOffset dy="1"/>
<feGaussianBlur stdDeviation="1"/>
<feComposite in2="hardAlpha" operator="out"/>
<feColorMatrix type="matrix" values="0 0 0 0 0 0 0 0 0 0 0 0 0 0 0 0 0 0 0.05 0"/>
<feBlend mode="normal" in2="BackgroundImageFix" result="effect1_dropShadow_374_165"/>
<feBlend mode="normal" in="SourceGraphic" in2="effect1_dropShadow_374_165" result="shape"/>
</filter>
</defs>
</svg>
